<?xml version="1.0" standalone="no"?>
<!DOCTYPE svg PUBLIC "-//W3C//DTD SVG 20010904//EN"
 "http://www.w3.org/TR/2001/REC-SVG-20010904/DTD/svg10.dtd">
<svg version="1.0" xmlns="http://www.w3.org/2000/svg"
 width="300.000000pt" height="300.000000pt" viewBox="0 0 300.000000 300.000000"
 preserveAspectRatio="xMidYMid meet">

<g transform="translate(0.000000,300.000000) scale(0.100000,-0.100000)"
fill="#000000" stroke="none">
<path d="M334 1602 c-18 -11 -16 -231 2 -259 20 -32 104 -33 135 -2 20 20 21
29 16 128 -4 58 -6 107 -7 108 0 1 -21 5 -47 8 -27 3 -56 10 -65 16 -21 11
-20 11 -34 1z m94 -61 c9 -5 12 -29 10 -82 -3 -64 -6 -74 -22 -77 -30 -6 -46
26 -46 88 0 69 21 95 58 71z"/>
<path d="M570 1600 c0 -6 9 -23 20 -37 22 -29 16 -50 -23 -76 -43 -28 -54 -71
-62 -228 -4 -94 -3 -149 3 -153 14 -9 22 18 33 109 5 44 11 94 14 110 3 17 7
45 10 62 4 23 20 44 50 70 37 30 45 43 45 70 0 45 18 42 22 -4 2 -30 9 -41 31
-51 46 -22 56 -48 66 -188 11 -139 24 -195 42 -177 13 13 12 241 -1 298 -6 29
-22 52 -59 85 -57 50 -64 70 -25 70 37 0 25 23 -17 33 -66 16 -149 20 -149 7z"/>
<path d="M1614 1593 c-20 -4 -54 -50 -64 -88 -3 -12 -19 -24 -38 -30 -39 -11
-41 -22 -6 -35 19 -8 24 -15 19 -28 -3 -9 -11 -67 -17 -127 -16 -162 5 -245
31 -123 7 28 16 93 21 143 12 113 16 125 45 125 33 0 42 -17 47 -89 5 -76 20
-91 87 -91 57 0 170 -32 216 -60 19 -12 48 -38 65 -58 24 -29 30 -33 30 -17 0
11 -9 38 -19 60 -28 63 -129 110 -266 124 l-60 6 -5 73 c-6 82 -20 102 -73
102 -27 0 -29 2 -22 27 3 14 15 38 26 51 20 25 25 43 12 41 -5 -1 -17 -4 -29
-6z"/>
<path d="M2183 1554 c-42 -46 -19 -101 45 -106 33 -3 37 -6 40 -34 3 -30 1
-31 -44 -38 -26 -3 -60 -6 -76 -6 -51 0 -26 -25 28 -28 95 -5 90 1 97 -118 4
-58 10 -110 13 -116 14 -22 26 26 29 119 2 52 8 100 13 105 5 5 29 8 53 6 l44
-3 7 -89 c6 -84 21 -128 32 -95 3 8 7 74 11 148 3 74 8 138 11 143 3 4 13 8
23 8 13 0 21 -18 36 -82 19 -83 82 -224 110 -248 28 -24 28 -1 0 62 -32 69
-86 258 -79 270 3 5 22 8 42 8 39 0 71 14 59 26 -3 4 -29 9 -57 12 -45 4 -52
8 -66 38 -21 43 -44 45 -44 3 0 -24 -5 -32 -30 -41 -35 -12 -50 -35 -50 -75 0
-40 -12 -49 -65 -45 -45 4 -46 5 -43 36 3 27 7 31 38 34 45 5 72 29 68 61 -4
34 -43 42 -53 11 -11 -36 -49 -22 -55 20 -4 27 -10 35 -25 35 -16 0 -21 -8
-23 -42 -2 -34 -7 -43 -21 -43 -27 0 -43 25 -38 59 6 37 0 37 -30 5z"/>
<path d="M1342 1529 c-27 -42 -11 -396 18 -414 22 -13 25 337 3 408 -8 27 -8
27 -21 6z"/>
<path d="M940 1509 c-25 -17 -52 -38 -60 -46 -13 -13 -11 -15 20 -11 19 3 42
7 50 9 13 3 15 -16 11 -142 -3 -144 3 -209 19 -209 19 0 34 391 16 415 -9 12
-19 9 -56 -16z"/>
<path d="M1748 1486 c-6 -162 -3 -166 163 -166 121 0 129 1 143 22 19 27 22
158 5 175 -25 25 -39 2 -39 -61 0 -35 -5 -67 -12 -74 -8 -8 -46 -12 -104 -12
-103 0 -119 9 -112 62 7 42 -10 105 -28 105 -10 0 -15 -15 -16 -51z"/>
<path d="M1940 1490 c-15 -36 -48 -40 -75 -10 -22 25 -35 17 -35 -20 0 -35 31
-60 76 -60 45 0 77 29 76 68 -1 58 -22 69 -42 22z"/>
<path d="M1210 1473 c0 -31 22 -198 32 -241 22 -101 31 -71 26 83 -5 108 -10
150 -20 156 -16 11 -38 12 -38 2z"/>
<path d="M1060 1422 c0 -21 -2 -83 -4 -139 -4 -95 2 -130 20 -102 9 15 33 240
27 255 -2 7 -13 14 -24 17 -16 4 -19 0 -19 -31z"/>
<path d="M1134 1426 c-10 -41 0 -319 13 -341 10 -17 12 -15 23 25 16 59 14
294 -3 320 -16 26 -25 25 -33 -4z"/>
</g>
</svg>
